<svg version="1.1" id="Layer_1" xmlns:x="ns_extend;" xmlns:i="ns_ai;" xmlns:graph="ns_graphs;" xmlns="http://www.w3.org/2000/svg" xmlns:xlink="http://www.w3.org/1999/xlink" x="0px" y="0px" viewBox="0 0 86.2 50" style="enable-background:new 0 0 86.2 50;" xml:space="preserve">
 <style type="text/css">
  .st0{fill:#133D54;}
 </style>
 <metadata>
  <sfw xmlns="ns_sfw;">
   <slices>
   </slices>
   <sliceSourceBounds bottomLeftOrigin="true" height="50" width="86.2" x="-36.2" y="0">
   </sliceSourceBounds>
  </sfw>
 </metadata>
 <g>
  <path class="st0" d="M10.4,32c0.8,0,2.9,0,2.9,0v5.1c0,0-2,0-2.9,0C7.5,37.1,0,36.6,0,28.6C0,19.4,0,0,0,0h5c0,0,0,22.9,0,27.1
		C5,31.1,7.6,31.9,10.4,32z M86.2,23.7v13.5h-5v-2.9c-2.3,1.8-5.2,3-8.3,3c-7.4,0-13.4-6-13.4-13.5c0-7.5,6-13.5,13.4-13.5
		C80.2,10.2,86.2,16.2,86.2,23.7z M81.3,23.7c0-4.7-3.8-8.5-8.4-8.5c-4.6,0-8.4,3.8-8.4,8.5s3.8,8.5,8.4,8.5
		C77.5,32.2,81.3,28.3,81.3,23.7z M58.1,10.2c-4.8,0-7.7,2.6-9.2,4.9v-4.9h-5v27h5V25.5c0-5.1,3.2-10.4,9-10.4h1v-4.9H58.1z
		 M35.1,10.1l-8.6,20.3l-7.7-20.3h-5.4L23.7,37l-5.8,13h5.7l17.2-39.9H35.1z">
  </path>
 </g>
</svg>