<svg version="1.1" id="Layer_1" xmlns:x="ns_extend;" xmlns:i="ns_ai;" xmlns:graph="ns_graphs;" xmlns="http://www.w3.org/2000/svg" xmlns:xlink="http://www.w3.org/1999/xlink" x="0px" y="0px" viewBox="0 0 196.7 45" style="enable-background:new 0 0 196.7 45;" xml:space="preserve">
 <style type="text/css">
  .st0{fill:#391F17;}
 </style>
 <metadata>
  <sfw xmlns="ns_sfw;">
   <slices>
   </slices>
   <sliceSourceBounds bottomLeftOrigin="true" height="45" width="196.7" x="-76.7" y="4.5">
   </sliceSourceBounds>
  </sfw>
 </metadata>
 <g>
  <path class="st0" d="M174.3,26.8c0-6.6,1.9-10.3,5.4-10.3c3,0,5,2.7,5,6.5V35c0,1.7-2.3,3.5-4.5,3.5
		C176.6,38.5,174.3,34.1,174.3,26.8z M176.5,45c2.7,0,5.1-0.9,7.3-3.8c0.4-0.6,1.1-0.3,1,0.3l-0.5,2.1c-0.2,0.9,0.5,1.5,1.5,1
		c1.8-0.9,6.1-1.8,10-2.2c0.6,0,1-0.5,1-1.1c0-1.7-2.8-3.4-2.8-7.5V1c0-0.8-0.8-1.2-1.6-0.8c-2.9,1.5-6.8,3-9.5,3.6
		c-0.6,0.1-0.9,0.5-0.9,1.1c0,1.6,2.8,3.4,2.8,7.8v1.2c0,0.3-0.2,0.3-0.4,0.2c-1.2-1.1-2.9-1.8-5.4-1.8c-8,0-13.8,7.4-13.8,17.5
		C165.2,38.7,169.7,45,176.5,45z M133.8,44.1h11.6c0.6,0,1-0.4,1-1c0-1.5-2.2-2.4-2.2-7.5V22.4c0-0.5,0.1-0.8,0.4-1.2
		c1.1-1.5,3.1-2.5,5.1-2.5c2.3,0,3.3,1.3,3.3,4.1v12.9c0,5.1-2.2,6-2.2,7.5c0,0.6,0.4,1,1,1h11.6c0.6,0,1-0.4,1-1
		c0-1.5-2.2-2.4-2.2-7.5V22.3c0-6.5-3.7-10.2-8.8-10.2c-3.2,0-5.7,1.5-8.5,4.4c-0.3,0.3-0.9,0-0.7-0.6l0.5-2.1c0.2-1-0.7-1.4-1.5-1
		c-2.2,1.2-6.7,2.9-10.2,3.6c-0.6,0.1-0.9,0.5-0.9,1.1c0,1.6,2.8,3.4,2.8,7.5v10.5c0,5.1-2.2,6-2.2,7.5
		C132.8,43.7,133.2,44.1,133.8,44.1z M118.9,6.1c0,3.3,2.7,5.9,6,5.9c3.3,0,6-2.7,6-5.9c0-3.3-2.7-5.9-6-5.9
		C121.5,0.3,118.9,2.9,118.9,6.1z M119,44.1h11.6c0.6,0,1-0.4,1-1c0-1.5-2.2-2.4-2.2-7.5V13.8c0-0.8-0.8-1.2-1.6-0.8
		c-2.9,1.5-6.8,3-9.5,3.6c-0.6,0.1-0.9,0.5-0.9,1.1c0,1.6,2.8,3.4,2.8,7.8v10.2c0,5.1-2.2,6-2.2,7.5C117.9,43.7,118.4,44.1,119,44.1
		z M69.9,44.1h11.6c0.7,0,1-0.5,1-1c0-1.5-2.2-2.4-2.2-7.5V22.4c0-0.5,0.1-0.9,0.5-1.4c1.4-1.7,2.6-2.4,4.2-2.4
		c2.7,0,3.1,2.1,3.1,4.1v12.9c0,5.1-2.2,6-2.2,7.5c0,0.6,0.4,1,1,1h11.6c0.7,0,1-0.5,1-1c0-1.5-2.2-2.4-2.2-7.5V22.4
		c0-0.5,0.2-0.9,0.5-1.2c1.4-1.8,2.8-2.6,4.5-2.6c2.7,0,3,2.3,3,4.3v12.8c0,5.1-2.2,6-2.2,7.5c0,0.6,0.4,1,1,1h11.6c0.7,0,1-0.5,1-1
		c0-1.5-2.2-2.4-2.2-7.5V22.3c0-6.5-3.3-10.1-9-10.1c-3.3,0-6.4,1.6-9,4.8c-0.1,0.1-0.3,0.1-0.4,0c-1.6-3-3.9-4.7-7.1-4.7
		c-3.3,0-5.2,1.5-8.1,4.4c-0.3,0.3-0.9,0-0.7-0.6l0.5-2.1c0.2-1-0.7-1.4-1.5-1c-2.2,1.2-6.7,2.9-10.2,3.6c-0.6,0.1-0.9,0.5-0.9,1.1
		c0,1.6,2.8,3.4,2.8,7.5v10.5c0,5.1-2.2,6-2.2,7.5C68.8,43.7,69.2,44.1,69.9,44.1z M37,44.1h11.6c0.6,0,1-0.4,1-1
		c0-1.5-2.2-2.4-2.2-7.5V22.4c0-0.5,0.1-0.8,0.4-1.2c1.1-1.5,3.1-2.5,5.1-2.5c2.3,0,3.3,1.3,3.3,4.1v12.9c0,5.1-2.2,6-2.2,7.5
		c0,0.6,0.4,1,1,1h11.6c0.6,0,1-0.4,1-1c0-1.5-2.2-2.4-2.2-7.5V22.3c0-6.5-3.7-10.2-8.8-10.2c-3.2,0-5.7,1.5-8.5,4.4
		c-0.3,0.3-0.9,0-0.7-0.6l0.5-2.1c0.2-1-0.7-1.4-1.5-1c-2.2,1.2-6.7,2.9-10.2,3.6c-0.6,0.1-0.9,0.5-0.9,1.1c0,1.6,2.8,3.4,2.8,7.5
		v10.5c0,5.1-2.2,6-2.2,7.5C36,43.7,36.4,44.1,37,44.1z M26.6,5.9h8.8c0.7,0,1,0.5,1,1c0,1.5-2.8,2.4-2.8,7.5V30
		c0,9.6-4.8,14.6-14.1,14.6h-0.3c-10.1,0-16.5-5.5-16.5-14V14.5C2.8,9.4,0,8.5,0,7c0-0.6,0.4-1,1-1h15.3c0.7,0,1,0.5,1,1
		c0,1.5-2.8,2.4-2.8,7.5v14.7c0,6.4,2.1,9.2,6.9,9.2c4.5,0,6.5-2.6,6.5-8.4V14.4c0-5-2.6-5.9-2.6-7.4C25.5,6.4,25.9,5.9,26.6,5.9z">
  </path>
 </g>
</svg>