<?xml version="1.0" encoding="UTF-8"?>
<svg xmlns="http://www.w3.org/2000/svg" width="227" height="28" viewBox="0 0 227 28" fill="none">
  <path d="M4.15014 19.4471C4.32745 22.6438 6.43854 24.1022 10.0595 24.1022C11.9481 24.1215 13.8151 23.695 15.5118 22.8566C15.6171 23.9959 15.1599 25.5578 14.4923 26.2688C13.3674 26.9435 11.4669 27.5481 9.07601 27.5481C3.20265 27.5481 0 23.9959 0 18.3442C0 12.6226 3.30793 8.74842 8.68815 8.74842C13.542 8.74842 15.8276 11.8276 15.8276 16.284C15.8422 17.3562 15.6879 18.4239 15.3705 19.4471H4.15014ZM11.888 16.3176C12.1346 14.1873 11.4309 11.9479 8.51361 11.9479C5.92323 11.9479 4.32745 13.6835 4.15014 16.3176H11.888Z" fill="#073CA8"></path>
  <path d="M23.9894 27.5481C21.0693 27.5481 19.9445 25.737 19.9445 22.7502V1.39202C20.8587 0.83217 22.0888 0.552246 23.9894 0.552246V22.1568C23.9894 23.6152 24.5434 23.8979 25.466 23.8979C26.244 23.9039 27.0051 23.6685 27.6464 23.2233C27.8569 24.4689 27.4358 26.1037 26.8152 26.8623C25.9539 27.3498 24.9759 27.5872 23.9894 27.5481Z" fill="#073CA8"></path>
  <path d="M33.6278 19.4471C33.8051 22.6438 35.9134 24.1022 39.5372 24.1022C41.4248 24.1206 43.2907 23.6941 44.9866 22.8566C45.0919 23.9959 44.6348 25.5578 43.9671 26.2688C42.8395 26.9435 40.9418 27.5481 38.5481 27.5481C32.6747 27.5481 29.4749 23.9959 29.4749 18.3442C29.4749 12.6226 32.78 8.74842 38.163 8.74842C43.0168 8.74842 45.3025 11.8276 45.3025 16.284C45.3156 17.3561 45.1614 18.4236 44.8453 19.4471H33.6278ZM41.3657 16.3176C41.6122 14.1873 40.9085 11.9479 37.9885 11.9479C35.387 11.9479 33.8051 13.6891 33.6278 16.3176H41.3657Z" fill="#073CA8"></path>
  <path d="M58.7392 25.2387C57.8582 26.6943 56.2042 27.5481 53.8853 27.5481C50.788 27.5481 48.1172 26.0561 48.1172 22.0756C48.1172 17.776 51.1647 16.0684 55.2207 16.0684C56.3689 16.0432 57.5124 16.2242 58.5979 16.6031V15.9229C58.5979 13.328 57.5063 12.2839 54.9381 12.2839C53.0083 12.2961 51.1159 12.8233 49.4526 13.8122C49.1368 12.7457 49.2781 10.8982 49.9097 9.9381C51.1398 9.22709 53.2509 8.72883 55.6778 8.72883C60.3211 8.72883 62.604 10.5427 62.604 15.587V22.585C62.604 23.6516 63.0971 23.9007 63.8008 23.9007C64.3611 23.9039 64.9104 23.7435 65.3827 23.4388C65.524 24.5053 65.2054 26.0701 64.643 26.8147C63.86 27.2959 62.9579 27.5425 62.0415 27.5257C60.2463 27.5257 59.2711 26.7083 58.947 25.2163L58.7392 25.2387ZM58.6311 19.5871C57.763 19.2728 56.8465 19.1164 55.9244 19.1252C53.431 19.1252 52.1261 20.2281 52.1261 21.8265C52.1261 23.4248 53.3922 24.1022 55.0794 24.1022C56.4175 24.1022 57.8221 23.674 58.6311 22.5375V19.5871Z" fill="#073CA8"></path>
  <path d="M72.4141 26.6243C72.0263 26.8371 71.3946 26.9435 70.3751 26.9435C69.3556 26.9435 68.7571 26.8371 68.3693 26.6243V9.77854C69.1422 9.35306 70.3086 9.14031 71.6412 9.14031L71.8878 11.9116H72.0983C72.9073 10.1704 74.6998 8.74842 77.9717 8.74842C80.6784 8.74842 83.809 9.70856 83.809 15.5002V26.6243C83.4239 26.8371 82.7895 26.9435 81.77 26.9435C80.7505 26.9435 80.152 26.8371 79.7642 26.6243V16.284C79.7642 13.9382 79.0272 12.4798 76.5283 12.4798C74.3479 12.4798 73.0818 13.6163 72.4141 14.862V26.6243Z" fill="#073CA8"></path>
  <path d="M104.532 17.8823C104.532 24.1722 101.365 27.5481 96.1957 27.5481C90.7795 27.5481 87.7902 24.315 87.7902 17.8823C87.7902 12.1243 91.1313 8.74842 96.1957 8.74842C101.26 8.74842 104.532 11.9116 104.532 17.8823ZM96.1957 24.1358C99.0438 24.1358 100.415 21.7901 100.415 17.8823C100.415 14.3637 98.8692 12.1607 96.1957 12.1607C93.3117 12.1607 91.9043 14.3637 91.9043 17.8823C91.9043 21.8265 93.3477 24.1358 96.1957 24.1358Z" fill="#073CA8"></path>
  <path d="M116.982 8.74841C117.585 8.7209 118.186 8.82994 118.742 9.06752C119.146 9.85729 119.337 10.7407 119.296 11.6288C119.323 12.2078 119.239 12.7867 119.049 13.3336C118.369 12.9608 117.607 12.7681 116.833 12.7737C114.758 12.7737 113.35 14.053 112.577 16.3623V26.6327C112.19 26.8455 111.558 26.9518 110.538 26.9518C109.519 26.9518 108.92 26.8455 108.533 26.6327V9.77853C109.306 9.35305 110.472 9.1403 111.804 9.1403L112.082 12.3034H112.309C112.902 10.2404 114.204 8.74841 116.982 8.74841Z" fill="#073CA8"></path>
  <path d="M133.021 26.6243C132.633 26.8371 132.001 26.9435 130.979 26.9435C129.956 26.9435 129.361 26.8371 128.976 26.6243V1.39202C129.89 0.83217 131.12 0.552246 133.021 0.552246V6.90091C133.037 8.54412 132.908 10.1855 132.633 11.8052H132.843C133.619 10.1704 135.237 8.74841 138.611 8.74841C141.382 8.74841 144.59 9.70855 144.59 15.5002V26.6243C144.205 26.8371 143.571 26.9435 142.551 26.9435C141.531 26.9435 140.933 26.8371 140.545 26.6243V16.284C140.545 13.9018 139.772 12.4798 137.24 12.4798C134.99 12.4798 133.724 13.5827 133.021 14.8619V26.6243Z" fill="#073CA8"></path>
  <path d="M152.647 19.4471C152.821 22.6438 154.932 24.1022 158.553 24.1022C160.442 24.1215 162.309 23.695 164.005 22.8566C164.111 23.9959 163.654 25.5578 162.986 26.2688C161.861 26.9435 159.961 27.5481 157.57 27.5481C151.696 27.5481 148.496 23.9959 148.496 18.3442C148.496 12.6226 151.802 8.74842 157.182 8.74842C162.036 8.74842 164.321 11.8276 164.321 16.284C164.336 17.3562 164.181 18.4239 163.864 19.4471H152.647ZM160.384 16.3176C160.628 14.1873 159.927 11.9479 157.007 11.9479C154.403 11.9479 152.821 13.6891 152.647 16.3176H160.384Z" fill="#073CA8"></path>
  <path d="M177.758 25.2387C176.88 26.6943 175.226 27.5481 172.904 27.5481C169.809 27.5481 167.136 26.0561 167.136 22.0756C167.136 17.776 170.197 16.0684 174.242 16.0684C175.389 16.043 176.532 16.2241 177.617 16.6031V15.9229C177.617 13.328 176.528 12.2839 173.96 12.2839C172.03 12.2953 170.137 12.8226 168.474 13.8122C168.156 12.7457 168.297 10.8982 168.931 9.9381C170.161 9.22709 172.272 8.72883 174.699 8.72883C179.34 8.72883 181.625 10.5427 181.625 15.587V22.585C181.625 23.6516 182.116 23.9007 182.82 23.9007C183.381 23.9043 183.931 23.7439 184.404 23.4388C184.543 24.5053 184.227 26.0701 183.665 26.8147C182.881 27.2958 181.977 27.5424 181.06 27.5257C179.268 27.5257 178.29 26.7083 177.966 25.2163L177.758 25.2387ZM177.653 19.5871C176.784 19.2728 175.866 19.1164 174.943 19.1252C172.45 19.1252 171.145 20.2281 171.145 21.8265C171.145 23.4248 172.411 24.1022 174.101 24.1022C175.436 24.1022 176.844 23.674 177.653 22.5375V19.5871Z" fill="#073CA8"></path>
  <path d="M191.159 27.5481C188.239 27.5481 187.114 25.737 187.114 22.7502V1.39202C188.028 0.83217 189.258 0.552246 191.159 0.552246V22.1568C191.159 23.6152 191.713 23.8979 192.635 23.8979C193.413 23.9039 194.174 23.6685 194.816 23.2233C195.026 24.4689 194.605 26.1037 193.984 26.8623C193.123 27.3489 192.145 27.5862 191.159 27.5481Z" fill="#073CA8"></path>
  <path d="M207.302 9.45942C207.519 10.025 207.614 10.6312 207.579 11.2369C207.614 11.8427 207.519 12.4489 207.302 13.0144H202.415V20.9615C202.415 22.7754 202.872 23.8055 204.839 23.8055C206.046 23.7995 207.218 23.401 208.183 22.669C208.358 23.9483 207.906 25.6894 207.266 26.4704C206.319 27.145 205.122 27.5369 203.504 27.5369C199.669 27.5369 198.37 25.3703 198.37 21.5325V13.0144H195.699C195.699 11.6988 195.874 10.3832 196.253 9.45942H198.365V5.58527C199.243 4.84068 200.683 4.41239 202.409 4.3788V9.45942H207.302Z" fill="#073CA8"></path>
  <path d="M215.428 26.6243C215.04 26.8371 214.408 26.9435 213.386 26.9435C212.364 26.9435 211.768 26.8371 211.383 26.6243V1.39202C212.297 0.83217 213.527 0.552246 215.428 0.552246V6.90091C215.445 8.54412 215.315 10.1855 215.04 11.8052H215.251C216.026 10.1704 217.644 8.74841 221.019 8.74841C223.789 8.74841 227 9.70855 227 15.5002V26.6243C226.612 26.8371 225.978 26.9435 224.958 26.9435C223.939 26.9435 223.34 26.8371 222.955 26.6243V16.284C222.955 13.9018 222.179 12.4798 219.647 12.4798C217.398 12.4798 216.132 13.5827 215.428 14.8619V26.6243Z" fill="#073CA8"></path>
</svg>
