<?xml version="1.0" encoding="UTF-8"?><svg id="Layer_2" xmlns="http://www.w3.org/2000/svg" viewBox="0 0 183.94 43.53"><defs><style>.cls-1{fill:#fff;}</style></defs><g id="Layer_1-2"><path class="cls-1" d="m22.03,2.61C11.48,2.44,2.78,10.85,2.61,21.41c-.17,10.55,8.24,19.25,18.8,19.43,10.55.17,19.25-8.24,19.43-18.8,0-.21,0-.42,0-.63-.18-10.32-8.52-18.64-18.84-18.8h.04Zm0,40.92C10.01,43.68.15,34.05,0,22.03-.14,10.01,9.48.15,21.5,0c12.02-.15,21.88,9.48,22.03,21.5,0,.17,0,.34,0,.51-.17,11.81-9.69,21.34-21.5,21.52"/><path class="cls-1" d="m21.72,12.45h0c.64,0,1.15.52,1.15,1.16v16.14c0,.64-.52,1.16-1.15,1.16s-1.15-.52-1.15-1.16V13.61c0-.64.52-1.16,1.15-1.16"/><path class="cls-1" d="m27.3,15.3h0c.64,0,1.15.52,1.15,1.16v10.44c0,.64-.52,1.16-1.15,1.16s-1.15-.52-1.15-1.16v-10.44c0-.64.52-1.16,1.15-1.16"/><path class="cls-1" d="m16.13,15.3h0c.64,0,1.15.52,1.15,1.16v10.44c0,.64-.52,1.16-1.15,1.16s-1.15-.52-1.15-1.16v-10.44c0-.64.52-1.16,1.15-1.16"/><path class="cls-1" d="m32.89,18.22h0c.64,0,1.15.52,1.15,1.16v4.61c0,.64-.52,1.16-1.15,1.16s-1.15-.52-1.15-1.16v-4.61c0-.64.52-1.16,1.15-1.16"/><path class="cls-1" d="m10.55,18.22h0c.64,0,1.15.52,1.15,1.16v4.61c0,.64-.52,1.16-1.15,1.16s-1.15-.52-1.15-1.16v-4.61c0-.64.52-1.16,1.15-1.16"/><path class="cls-1" d="m85.84,29.38c-3.23,0-5.85-2.97-5.85-6.65s2.6-6.66,5.83-6.66,5.84,2.97,5.84,6.65-2.61,6.66-5.84,6.66h.02Zm.16-16.22c-5.2-.09-9.48,4.05-9.57,9.25-.09,5.2,4.05,9.48,9.25,9.57,5.2.09,9.48-4.05,9.57-9.25,0-.05,0-.1,0-.16.04-5.15-4.1-9.37-9.25-9.41"/><path class="cls-1" d="m115.68,19.33v11.03c0,.89-.73,1.62-1.62,1.62-.9,0-1.62-.73-1.62-1.62v-11.59s-2.97-6.26-9.73.88v10.71c0,.71-.58,1.29-1.3,1.29h-.33c-.72,0-1.3-.58-1.3-1.29v-15.28c0-.72.58-1.29,1.3-1.29h.33c.71,0,1.29.58,1.29,1.29v1.62c.79-.97,1.79-1.74,2.92-2.26,3.3-1.53,8.18-2.39,10.04,4.31h-.08c.07.18.11.38.11.57"/><path class="cls-1" d="m73.81,29.22c0,.21-.05.42-.13.61-.31.3-.64.57-.99.82-4.29,2.95-10.15,1.86-13.1-2.43-2.95-4.29-1.86-10.15,2.43-13.1,3.21-2.21,7.46-2.21,10.67,0,.35.25.68.53.99.82.08.19.13.4.13.61.02.8-.62,1.47-1.42,1.48h-.03c-.18,0-.37-.04-.53-.11-.2-.16-.4-.31-.61-.45-2.97-2-7.01-1.22-9.01,1.75-2,2.97-1.22,7.01,1.76,9.01,1.09.74,2.38,1.12,3.69,1.11,1.27,0,2.51-.36,3.56-1.07.22-.14.42-.29.61-.46.17-.06.35-.1.53-.1.8,0,1.45.65,1.45,1.45v.03Z"/><path class="cls-1" d="m135.78,29.22c0,.21-.05.42-.14.61-.31.3-.64.57-.99.82-4.29,2.95-10.15,1.86-13.1-2.43-2.95-4.29-1.86-10.15,2.43-13.1,3.21-2.21,7.46-2.21,10.67,0,.35.25.68.52.99.82.09.19.14.4.14.61.01.81-.64,1.47-1.44,1.48h-.02c-.18,0-.36-.04-.53-.11-.19-.16-.4-.31-.6-.45-2.97-2-7.01-1.22-9.01,1.75-2,2.97-1.22,7.01,1.76,9.01,1.09.74,2.38,1.12,3.69,1.11,1.27,0,2.51-.36,3.56-1.07.21-.14.41-.29.6-.46.17-.06.35-.1.53-.1.81,0,1.47.66,1.47,1.46v.02Z"/><path class="cls-1" d="m153.87,23.53c0,.12-.12.18-.45.18h-11.13s0-.05,0-.07v-.09h11.32l.26-.02Z"/><path class="cls-1" d="m142,20.78c.18-2.93,2.7-5.16,5.63-4.98,2.68.16,4.82,2.3,4.98,4.98h-10.6Zm11.87,2.74c.89-.13,1.55-.9,1.54-1.8,0-4.88-2.42-8.72-7.55-8.72-5.42,0-9.16,3.09-9.16,9.58-.19,4.91,3.64,9.05,8.56,9.24.2,0,.4,0,.6,0,2.19-.02,4.35-.53,6.32-1.49.72-.41.96-1.32.55-2.04-.27-.47-.77-.76-1.32-.75-.17,0-.34.03-.51.09-2.37.83-9.89,3.03-10.62-3.96,0-.02,0-.04,0-.07v-.09h11.32l.26.02Z"/><path class="cls-1" d="m183.94,30.36c0,1.34-1.86,2.11-4.55,2.11s-4.37-1.79-4.37-3.96v-11.78h-1.62c-.72,0-1.3-.6-1.29-1.32,0-.34.14-.65.37-.89.25-.24.58-.37.92-.38h.45c0-.33,2.15-2.36,3.51-3.48.24-.19.59-.15.78.09.08.1.12.22.12.34v3.02h3.96c.72,0,1.3.58,1.3,1.29s-.58,1.3-1.29,1.3h-3.89v11.26c.29,1.16,1.39,1.93,2.58,1.79.52-.01,1.03-.11,1.51-.29.45-.3,1.06-.19,1.37.26.11.2.16.43.16.65"/><rect class="cls-1" x="178.26" y="13.81" width="0" height=".32"/><path class="cls-1" d="m170.39,14.79c0,.49-.2.95-.54,1.3l-.33.32s-4.21,0-6.16,3.56v10.88c-.07.81-.77,1.4-1.58,1.34-.71-.06-1.28-.62-1.34-1.34v-15.91c.01-.8.68-1.44,1.48-1.43.38,0,.75.16,1.01.44.27.26.42.62.42.99v1.36c1.58-1.94,4-2.99,6.49-2.82.34.35.54.82.54,1.31"/></g></svg>