<svg version="1.1" id="Layer_1" xmlns:x="ns_extend;" xmlns:i="ns_ai;" xmlns:graph="ns_graphs;" xmlns="http://www.w3.org/2000/svg" xmlns:xlink="http://www.w3.org/1999/xlink" x="0px" y="0px" viewBox="0 0 427.4 56" style="enable-background:new 0 0 427.4 56;" xml:space="preserve">
 <metadata>
  <sfw xmlns="ns_sfw;">
   <slices>
   </slices>
   <sliceSourceBounds bottomLeftOrigin="true" height="56" width="427.4" x="-122.8" y="-213.4">
   </sliceSourceBounds>
  </sfw>
 </metadata>
 <g>
  <path d="M414.6,12.7c-3.3,0-6.6,1.1-8.8,3.5V0l0,0l-6.9,3.4v41.2h6.9V24.8c1.3-3.7,4-5.5,7.5-5.5c4.6,0,7.2,3.6,7.2,7v18.3h6.9
		V26.2C427.4,18.1,422.4,12.7,414.6,12.7L414.6,12.7z M369.5,13.2h4.6v-6l6.9-3.4v9.4h8l0,6.2h-8v14.3c0,3.2,0.9,4.6,4.5,4.6h4.3
		v6.3h-6.1c-6,0-9.6-3.6-9.6-9.5V19.4h-4.6V13.2z M354.9,3.4v41.2h6.9V0.1L354.9,3.4z M337.9,42.6c-2.2,1.8-5.1,2.8-8.4,2.8
		c-9.3,0-16.1-7-16.1-16.2s6.8-16.2,16.1-16.2c3.3,0,6.2,1.1,8.4,2.8v-2.8h6.9v31.9h-6.9V42.6L337.9,42.6z M337.9,23.8
		c-1.7-2.6-4.9-4.3-8.4-4.3c-5.3,0-9.1,4.1-9.1,9.6s3.8,9.6,9.1,9.6c3.5,0,6.7-1.7,8.4-4.3L337.9,23.8L337.9,23.8z M276,28.9
		c0-9.2,6.9-16.2,16.1-16.2c8.7,0,14.6,6.2,15,16.2v1.9h-23.9c0.7,4.5,4.3,7.5,9,7.5c3.1,0,6.1-1.3,8.2-3.6l4.6,5
		c-2.7,3.1-7.3,5.5-12.8,5.5C282.9,45.1,276,38.1,276,28.9L276,28.9z M283.3,25.5h16.1c-0.8-4.3-3.8-6.4-7.9-6.4
		C287.8,19.1,284.4,21.5,283.3,25.5z M268.7,0l-7.3,3.6v14.9h-22.1V0h0L232,3.6v41.7h7.3V25.5h22.1v19.8h7.3L268.7,0L268.7,0z">
  </path>
  <path d="M187.3,42.8L175,13h7.4l8.5,21.7l8.6-21.7h7.4l-18,43h-7.3L187.3,42.8z M140.6,29.2c0-9.2,6.9-16.2,16.1-16.2
		c8.7,0,14.6,6.2,15,16.2v1.9h-23.9c0.7,4.5,4.3,7.5,9,7.5c3.8,0,6.5-1.8,8.2-3.6l4.6,5c-2.7,3.1-7.3,5.5-12.8,5.5
		C147.5,45.4,140.6,38.4,140.6,29.2z M147.9,25.7H164c-0.8-4.3-3.8-6.4-7.9-6.4C152.4,19.3,149,21.8,147.9,25.7z M125.2,3.7v41.6
		h6.9v-45L125.2,3.7z M94.3,39l5.3-3.8c1.5,2.6,3.3,4,6.4,4c2.4,0,4-1.2,4-2.9c0-1.8-1.3-2.9-4.2-4l-2.2-0.9
		c-5.3-2.1-7.7-5.4-7.7-9.7c0-5.1,4.3-8.9,10.1-8.9c4,0,7.5,1.6,9.8,5.5l-5.1,3.5c-1.1-1.9-2.6-2.8-4.6-2.8c-1.8,0-3.5,0.9-3.5,2.5
		c0,1.6,1.1,2.6,4,3.8l2.3,0.8c5.3,2.1,8.2,4.8,8.2,9.7c0,5.5-4.6,9.4-11.2,9.4C101,45.4,96.8,43.4,94.3,39z M72.3,13h6.9v3.6
		c2-2.4,4.7-3.5,8.1-3.5c0.8,0,1.6,0.1,2.3,0.2v7.2c-0.9-0.3-2.1-0.4-3.5-0.4c-3,0-5.5,1.1-6.9,3.8v21.1h-6.9V13z M56,42.6
		c-2.2,1.8-5.1,2.8-8.4,2.8c-9.3,0-16.1-7-16.1-16.2S38.2,13,47.5,13c3.3,0,6.2,1.1,8.4,2.8v-2.9h6.9v32H56V42.6L56,42.6z M56,23.8
		c-1.7-2.6-4.9-4.3-8.4-4.3c-5.3,0-9.1,4.1-9.1,9.6s3.8,9.6,9.1,9.6c3.5,0,6.7-1.7,8.4-4.3V23.8z M0,0.3h13.3
		c9.2,0,15.6,5.8,15.6,14.2c0,8.3-6.3,14.2-15.6,14.2h-6v16.2H0V0.3L0,0.3z M13,21.9c5.3,0,8.5-3,8.5-7.4c0-4.5-3.1-7.4-8.5-7.4H7.3
		v14.8H13z">
  </path>
 </g>
</svg>