<svg fill="none" viewBox="0 0 589 134" width="180" xmlns="http://www.w3.org/2000/svg"><path clip-rule="evenodd" d="M83.5001 101.3C84.2401 92.8 82.0401 84.31 77.2701 77.24C74.3501 73.32 71.2201 69.56 67.8901 65.97C63.9201 61.77 60.2901 57.27 57.0301 52.51L56.8901 52.31C46.5901 36.84 52.6001 25.54 57.1001 20.17C57.9401 19.02 58.9601 18 60.1201 17.16L60.3101 16.97L60.4601 17.19C75.7201 30.73 73.0401 48.89 72.7301 50.65L74.8601 52.79C78.5501 48.14 85.0601 32.33 79.5101 20.34C74.0901 8.59998 63.0101 1.74998 61.6901 0.97998C59.1101 2.38998 56.6701 4.03998 54.4001 5.91998L53.6101 6.55998C52.7901 7.24998 51.9601 8.01998 51.1201 8.84998C50.7701 9.18998 50.4401 9.52998 50.1501 9.87998C49.4901 10.56 48.8301 11.3 48.2001 12.07C48.0501 12.25 47.8901 12.42 47.7501 12.6C45.1801 15.68 43.0701 19.11 41.4901 22.8C41.4901 22.88 41.4301 22.96 41.4001 23.02C41.0101 23.95 40.6501 24.88 40.3401 25.86C38.6801 30.72 38.0101 35.86 38.3901 40.99C38.5201 44.16 39.2401 47.27 40.5101 50.17C40.5701 50.33 40.6501 50.47 40.7101 50.63C41.0401 51.37 41.4001 52.1 41.7901 52.83L41.9001 53.06C45.0601 58.9 49.8901 64.36 54.6401 69.62C61.5601 77.34 68.7001 85.34 70.3301 94.63C71.7601 101.36 70.0801 108.37 65.7401 113.71C64.7501 115.32 63.4601 116.72 61.9401 117.85L61.7601 117.96L61.6101 117.82C46.3401 104.21 49.0101 86.06 49.3301 84.27L47.2001 82.13C43.5001 86.81 37.0001 102.64 42.5501 114.63C47.9901 126.4 59.1101 133.26 60.3401 133.99C77.1001 124.48 82.5901 112.31 83.4801 101.29L83.5001 101.3ZM32.0001 98.14C22.0901 102.65 16.3101 100.94 16.3101 100.94C20.3001 80.22 39.5701 70.93 39.5701 70.93L40.4301 67.62C34.9301 67.72 16.3501 72.72 8.24007 84.98C3.34007 92.58 0.680068 101.41 0.570068 110.45C0.570068 110.45 14.4301 116.46 32.1401 110.19C31.4801 106.2 31.4301 102.13 32.0001 98.13V98.14ZM35.1401 60.62L31.3301 58.28C15.6201 47.92 15.1601 38.41 15.1601 38.41C20.0701 37.64 25.0801 37.73 29.9601 38.69L30.2501 38.75C30.1401 34.51 30.6101 30.28 31.6601 26.17C16.9901 21.06 0.580069 27.27 0.580069 27.27V28.24C0.820069 36.48 3.42007 44.47 8.07007 51.27C11.6901 56.62 16.2901 61.24 21.6101 64.91C25.8601 62.99 30.3201 61.56 34.9001 60.66L35.1201 60.61L35.1401 60.62ZM100.95 70.52C96.6701 72.52 92.1501 73.98 87.5101 74.85L87.7101 74.96C95.2001 79.61 106.09 87.1 107.09 96.89C102.19 97.8 97.1501 97.7 92.2901 96.6C91.4101 96.38 90.6601 96.16 89.9701 95.96C89.9401 100.03 89.4701 104.08 88.5501 108.05C90.5601 108.71 93.0401 109.4 94.3901 109.71C103.47 111.6 112.88 111.02 121.66 108.04C121.66 108.04 123.3 86.36 100.94 70.51L100.95 70.52ZM121.57 26.76C121.57 26.76 106.8 20.36 88.2701 27.68C88.5701 31.99 88.2201 36.33 87.2201 40.54C98.9101 34.23 105.82 36.28 105.82 36.28C101.83 56.98 82.5701 66.24 82.5701 66.24L81.7101 69.55C87.2101 69.45 105.78 64.45 113.9 52.19C118.79 44.6 121.45 35.78 121.57 26.75V26.76ZM354.5 88.26H359.24V72.36C359.22 69.82 359.58 67.29 360.31 64.85C362.15 58.67 366.48 54.82 371.62 54.82C372.18 54.82 372.75 54.86 373.3 54.94V50.27C372.69 50.15 372.08 50.08 371.46 50.08C366.01 50.08 361.56 53.83 359.58 60.12L359.53 60.27H358.98V60.04C358.98 60.04 359.14 58.66 359.14 57.02V50.48H354.47L354.49 88.28L354.5 88.26ZM342.04 65.35C341.71 56.58 336.1 53.44 330.96 53.44C323.98 53.44 318.74 58.11 317.6 65.33V65.57H342.09L342.04 65.35ZM331.11 49.53C341.99 49.53 346.86 58.3 346.86 66.95C346.86 67.66 346.76 68.9 346.72 69.4H317.35V69.61C317.59 80.21 325.08 84.94 332.39 84.94C336.66 84.85 340.76 83.25 343.97 80.43L346.08 84C342.19 87.27 337.3 89.08 332.22 89.14C320.76 89.14 312.43 80.82 312.43 69.37C312.46 57.68 320.12 49.51 331.11 49.51V49.53ZM288.01 84.95C294.11 84.95 300.62 80.84 300.62 69.31C300.62 61.81 296.72 53.73 288.23 53.73C280.86 53.73 275.7 60.13 275.7 69.31C275.7 78.67 280.64 84.95 288 84.95H288.01ZM287.79 49.54C291.32 49.44 294.76 50.71 297.38 53.08C298.5 54.09 299.42 55.29 300.1 56.63L300.16 56.76H300.7V56.53C300.59 55.56 300.54 54.58 300.54 53.61V35.26H305.18V88.26H300.59V84.44C300.59 83.54 300.63 82.63 300.74 81.73V81.49H300.31L300.25 81.63C299.58 83.05 298.64 84.33 297.48 85.39C294.71 87.93 291.05 89.29 287.29 89.17C277.31 89.17 270.85 81.38 270.85 69.32C270.81 57.48 277.63 49.55 287.79 49.55V49.54ZM259.32 88.25H264.05V64.13C264.05 54.03 260.15 49.52 251.5 49.52C245.02 49.38 239.08 53.12 236.41 59.04L236.36 59.18H235.81V58.94C235.91 57.94 235.96 56.93 235.96 55.92V50.46H231.3V88.26H236.03V70.13C235.99 68.37 236.2 66.61 236.65 64.91C238.37 58.5 244.14 54.02 250.77 53.95C258.61 53.95 259.27 59.91 259.27 65.49L259.3 88.25H259.32ZM204.01 84.95C212.49 84.95 219.13 78.02 219.13 69.15C219.55 60.81 213.14 53.71 204.8 53.29C196.46 52.87 189.36 59.28 188.94 67.62C188.91 68.13 188.91 68.64 188.94 69.15C188.9 78.01 195.54 84.95 204.02 84.95H204.01ZM204.01 49.54C215.23 49.54 224.02 58.16 224.02 69.16C223.78 80.21 214.62 88.97 203.57 88.73C192.86 88.49 184.24 79.87 184 69.16C184 58.16 192.79 49.54 204.01 49.54ZM152.75 83.81C156.49 87.33 161.47 89.25 166.61 89.16C174.19 89.16 179.48 84.85 179.48 78.66C179.48 71.84 173.26 69.44 167.79 67.29C163.21 65.51 158.89 63.82 158.89 59.88C158.89 55.35 162.93 53.74 166.68 53.74C170.17 53.63 173.57 54.83 176.22 57.1L178.36 53.56C177.7 52.91 173.97 49.57 166.85 49.57C160.66 49.57 153.98 52.8 153.98 59.91C153.98 66.62 160.19 69.08 165.67 71.26C170.25 73.07 174.57 74.78 174.57 78.69C174.57 83.04 170.61 84.99 166.68 84.99C162.45 84.96 158.39 83.34 155.29 80.46L152.75 83.8V83.81ZM538.31 55.57C545.84 55.57 549.27 62.54 549.27 69.03C549.27 79.07 543.53 82.67 538.16 82.67C531.64 82.67 527.24 77.24 527.24 69.16C527.24 61.08 531.81 55.59 538.31 55.59V55.57ZM536.67 89.46C540.39 89.57 544.02 88.31 546.87 85.91C547.89 85.04 548.76 84.02 549.46 82.88V84.22C549.46 87.08 551.14 88.54 554.48 88.54H561.92V81.8H558.52C557.55 81.8 557.02 81.32 557.02 80.34V39.53C557.02 35.98 555.47 34.46 551.84 34.46H544.18V41.2H547.57C548.28 41.09 548.94 41.56 549.06 42.27C549.08 42.4 549.08 42.53 549.06 42.66V52.31C549.06 53.1 549.06 53.8 549.15 54.26C548.48 53.3 547.65 52.46 546.72 51.77C543.96 49.71 540.57 48.65 537.13 48.76C526.42 48.76 519.14 56.93 519.14 69.12C519.16 81.49 526.04 89.48 536.68 89.48V89.46H536.67ZM516.33 81.81H512.94C511.97 81.81 511.44 81.33 511.44 80.35V63.72C511.44 53.65 506.95 48.76 497.72 48.76C491.7 48.6 486.08 51.77 483.11 57.01C483.11 56.62 483.18 56.13 483.18 55.59V54.14C483.18 51.22 481.44 49.67 478 49.67H470.57V56.41H473.96C474.67 56.3 475.33 56.77 475.45 57.48C475.47 57.61 475.47 57.74 475.45 57.87V88.57H483.41V70.34C483.35 68.61 483.58 66.88 484.11 65.23C485.56 59.69 490.6 55.86 496.32 55.96C502.25 55.96 503.48 59.74 503.48 65.4V83.5C503.48 87.06 505.03 88.58 508.66 88.58H516.33V81.82V81.81ZM455.83 42.56H463.01V34.47H455.83V42.56ZM468.44 81.81H465.05C464.34 81.92 463.67 81.44 463.56 80.73C463.54 80.6 463.54 80.48 463.56 80.35V54.74C463.56 51.19 462.01 49.67 458.38 49.67H450.79V56.41H454.19C455.16 56.41 455.68 56.89 455.68 57.86V83.48C455.68 87.04 457.23 88.56 460.86 88.56H468.45V81.8L468.44 81.81ZM448.75 88.55H441.08C437.45 88.55 435.9 87.03 435.9 83.47V65.33C435.9 60.46 435.08 55.88 429.2 55.88C425.25 55.88 420.16 58.93 418.39 65.62C417.97 67.32 417.76 69.06 417.78 70.81V88.57H409.82V65.32C409.82 59.65 408.7 55.87 403.28 55.87C397.12 55.87 393.48 61.28 392.24 65.9C391.86 67.49 391.68 69.13 391.7 70.77V88.56H383.74V57.86C383.84 57.15 383.33 56.49 382.62 56.39C382.49 56.37 382.37 56.37 382.24 56.39H378.84V49.65H386.28C389.77 49.65 391.46 51.11 391.46 54.12V57.02C394.09 52.06 399.18 48.9 404.79 48.74C411.35 48.74 415.26 51.53 416.71 57.27C419.47 52.08 424.84 48.81 430.72 48.74C439.58 48.74 443.9 53.61 443.9 63.7V80.34C443.8 81.05 444.29 81.7 445 81.8C445.13 81.82 445.26 81.82 445.39 81.8H448.79L448.75 88.52V88.55ZM578.7 42.68C578.76 42.06 578.46 41.45 577.92 41.13C577.44 40.94 576.93 40.86 576.42 40.9H574.83V44.51H576.89C577.38 44.54 577.85 44.37 578.2 44.03C578.53 43.67 578.71 43.19 578.69 42.7V42.68H578.7ZM579.36 46.35L582 51.15C582.07 51.27 582.07 51.43 582 51.55C581.94 51.68 581.8 51.76 581.65 51.75H579.7C579.55 51.76 579.4 51.67 579.34 51.54L576.85 46.84H574.9V51.35C574.9 51.57 574.73 51.75 574.51 51.76C574.51 51.76 574.5 51.76 574.49 51.76H572.77C572.66 51.76 572.55 51.72 572.47 51.64C572.39 51.56 572.35 51.46 572.35 51.35V39.01C572.35 38.9 572.39 38.8 572.47 38.72C572.55 38.64 572.66 38.6 572.77 38.6H576.55C577.38 38.56 578.2 38.66 578.99 38.91C579.71 39.16 580.32 39.66 580.71 40.31C581.52 41.67 581.55 43.36 580.8 44.75C580.46 45.36 579.94 45.86 579.31 46.16C579.33 46.23 579.35 46.3 579.36 46.36V46.34V46.35ZM576.82 35.69C575.55 35.69 574.3 35.94 573.14 36.44C570.87 37.41 569.07 39.23 568.13 41.5C567.13 43.85 567.13 46.51 568.13 48.86C569.08 51.14 570.89 52.95 573.18 53.9C575.53 54.9 578.19 54.9 580.54 53.9C582.82 52.95 584.62 51.14 585.58 48.86C586.58 46.51 586.58 43.85 585.58 41.5C584.63 39.22 582.82 37.41 580.54 36.45C579.36 35.95 578.1 35.69 576.82 35.7V35.68V35.69ZM588.35 45.17C588.35 46.71 588.04 48.24 587.43 49.65C586.28 52.43 584.07 54.64 581.28 55.79C578.42 57.01 575.19 57.01 572.33 55.79C569.55 54.65 567.33 52.45 566.17 49.67C563.68 43.82 566.4 37.06 572.25 34.57C575.13 33.34 578.39 33.34 581.27 34.57C584.05 35.72 586.27 37.93 587.42 40.72C588.03 42.13 588.35 43.66 588.35 45.2V45.18V45.17Z" fill="white" fill-rule="evenodd"></path></svg>