<svg xmlns="http://www.w3.org/2000/svg" viewBox="0 0 199.84 64.83"><defs><style>.cls-1{fill:#fff;}.cls-2{fill:#1ed3b9;}.cls-3{fill:#f4afab;}.cls-4{fill:#f25f5f;}</style></defs><g id="Layer_2" data-name="Layer 2"><g id="Layer_1-2" data-name="Layer 1"><path class="cls-1" d="M130,39.52a15.86,15.86,0,1,0-15.84,16.12h3a.4.4,0,0,0,.4-.4V48.83a.39.39,0,0,0-.4-.39h-3.39a8.41,8.41,0,1,1,8.67-8.28V55.23a.41.41,0,0,0,.41.41h6.84a.36.36,0,0,0,.36-.35C130.05,53.28,130.16,43.08,130,39.52Z"/><path class="cls-1" d="M130.75,25c2.11,0,4.22,0,6.33,0a.64.64,0,0,1,.7.47q4,10.32,8,20.63c.07.17.15.34.28.64L147.89,42c2.17-5.52,4.32-11,6.5-16.54a.7.7,0,0,1,.48-.4c2.25,0,4.39,0,6.63,0,.3,0,.34.18.23.48s-.26.64-.35.87c-3.73,9.07-7.67,19.19-11.4,28.26-.26.71-.38,1-1,1-1.69,0-4.38,0-6.07,0a.7.7,0,0,1-.75-.5c-3.15-7.71-6.21-16.1-9.37-23.79l-2.34-5.66C130.27,25.24,130.35,25,130.75,25Z"/><path class="cls-1" d="M114.1,48.44h0Z"/><path class="cls-1" d="M193.21,39.52a15.85,15.85,0,1,0-15.84,16.12h3.37v-7.2H177a8.41,8.41,0,1,1,8.67-8.28V55.64h7.26a.35.35,0,0,0,.35-.35C193.25,53.28,193.36,43.08,193.21,39.52Z"/><path class="cls-1" d="M177.3,48.44h0Z"/><path class="cls-1" d="M198.46,53.79a.66.66,0,0,0,.42-.63v0a.6.6,0,0,0-.18-.46.91.91,0,0,0-.69-.24h-1V54.5h.57v-.62h.26l.41.62H199Zm-.15-.6c0,.15-.11.24-.31.24h-.38v-.49H198c.2,0,.32.08.32.24Zm.15.6a.66.66,0,0,0,.42-.63v0a.6.6,0,0,0-.18-.46.91.91,0,0,0-.69-.24h-1V54.5h.57v-.62h.26l.41.62H199Zm-.15-.6c0,.15-.11.24-.31.24h-.38v-.49H198c.2,0,.32.08.32.24Zm-.4-1.61a2,2,0,0,0-1.94,2h0a1.93,1.93,0,0,0,1.93,1.94,2,2,0,0,0,1.94-1.95h0A1.93,1.93,0,0,0,197.91,51.58Zm1.7,2a1.71,1.71,0,1,1-3.42,0h0a1.71,1.71,0,0,1,1.72-1.73,1.69,1.69,0,0,1,1.7,1.72Zm-.73-.37v0a.6.6,0,0,0-.18-.46.91.91,0,0,0-.69-.24h-1V54.5h.57v-.62h.26l.41.62H199l-.49-.71A.66.66,0,0,0,198.88,53.16Zm-.57,0c0,.15-.11.24-.31.24h-.38v-.49H198c.2,0,.32.08.32.24Zm.15.6a.66.66,0,0,0,.42-.63v0a.6.6,0,0,0-.18-.46.91.91,0,0,0-.69-.24h-1V54.5h.57v-.62h.26l.41.62H199Zm-.15-.6c0,.15-.11.24-.31.24h-.38v-.49H198c.2,0,.32.08.32.24Zm.15.6a.66.66,0,0,0,.42-.63v0a.6.6,0,0,0-.18-.46.91.91,0,0,0-.69-.24h-1V54.5h.57v-.62h.26l.41.62H199Zm-.15-.6c0,.15-.11.24-.31.24h-.38v-.49H198c.2,0,.32.08.32.24Z"/><path class="cls-1" d="M80.3,20v-6.8a.36.36,0,0,1,.35-.36h7.24a.35.35,0,0,1,.35.36V25h8.64c.31,0,.32.11.32.46v6.11a.31.31,0,0,1-.32.28H88.36a4.8,4.8,0,0,0-.08.52c0,4.59,0,8.71,0,13.3a5,5,0,0,0,.39,1.85,2.73,2.73,0,0,0,2.69,1.71,36.59,36.59,0,0,0,4.5-.2.35.35,0,0,1,.37.35v5.22A.35.35,0,0,1,96,55c-.65.13-1.94.3-4.12.6a14.93,14.93,0,0,1-5.37-.15,7.27,7.27,0,0,1-5.92-6.16A17.68,17.68,0,0,1,80.31,46c0-4.59,0-9.18,0-13.77Z"/><path class="cls-2" d="M24.51,17.67l22.57.58a1.3,1.3,0,0,1,1.27,1.32c-.06,4.27-.28,18-.61,23A23.61,23.61,0,0,1,22.17,64.77C8.67,63.85-.5,52.43,0,40.86A23.59,23.59,0,0,1,24.51,17.67Z"/><path class="cls-3" d="M49.83,29.78l-13.29-.37a1.8,1.8,0,0,1-1.74-1.83c.06-3.4.21-10.7.4-13.54A15.08,15.08,0,1,1,49.83,29.78Z"/><path class="cls-4" d="M47.08,18.25l-12-.31c-.11,3.28-.19,7.34-.24,9.63a1.81,1.81,0,0,0,1.76,1.84l11.62.32c.09-4.21.16-8.19.18-10.16A1.29,1.29,0,0,0,47.08,18.25Z"/></g></g></svg>