<svg id="Layer_1" data-name="Layer 1" xmlns="http://www.w3.org/2000/svg" viewBox="0 0 679.8 85.5"><defs><style>.cls-1{fill:#f45656;}.cls-2{fill:#066f93;}.cls-3{fill:#312f20;}</style></defs><path class="cls-1" d="M63.3,85.5A42.89,42.89,0,0,1,20.4,42.6a22.2,22.2,0,1,1,44.4,0H53.1a10.2,10.2,0,0,0-20.4,0,30.9,30.9,0,0,0,61.8.3h11.7A42.83,42.83,0,0,1,63.3,85.5Z"/><path class="cls-2" d="M63.3,65.1A22.15,22.15,0,0,1,41.1,42.9H52.8a10.2,10.2,0,1,0,20.4,0A30.86,30.86,0,0,0,42.3,12c-16.5-.3-30.6,13.8-30.6,30.9H0a42.9,42.9,0,0,1,85.8,0A22.81,22.81,0,0,1,63.3,65.1Z"/><path class="cls-3" d="M157.64,39.6,148.17,74h-13L121.5,11.7h11.84l9.12,46.67,12.37-44h6.32l12.54,44,9.13-46.67h11.49L180.62,74h-13Z"/><path class="cls-3" d="M213.57,28.37c13.07,0,22.46,9.74,22.46,23.42,0,13.86-9.39,23.51-22.46,23.51s-22.45-9.65-22.45-23.51C191.12,38.11,200.5,28.37,213.57,28.37Zm0,37.54c6.67,0,11.23-5.79,11.23-14.12s-4.56-14-11.23-14-11.23,5.79-11.23,14S206.91,65.91,213.57,65.91Z"/><path class="cls-3" d="M261.31,75.3C248.24,75.3,239,65.65,239,51.79c0-13.68,9.21-23.42,22.1-23.42s20.79,9.74,20.79,23.42v3.6H250.26c1.14,6.31,5.44,10.52,11.05,10.52,3.86,0,7.46-1.93,10.44-6.31l8.6,5.09C276.05,71.35,269.64,75.3,261.31,75.3ZM250.17,47.84h20.61c-.87-6.66-4.12-10.26-9.82-10.26C255,37.58,251.22,41.35,250.17,47.84Z"/><path class="cls-3" d="M297.1,69.25V74H286.75V11.7H297.8v22a17.15,17.15,0,0,1,13.07-5.35c12.11,0,20.79,9.65,20.79,23.51,0,13.68-8.68,23.42-21.05,23.42C304.73,75.3,300.26,73.11,297.1,69.25Zm11.67-3.6c6.66,0,11.66-5.53,11.66-13.77s-5-14-11.66-14c-6.84,0-11.76,5.62-11.76,14C297,59.86,301.93,65.65,308.77,65.65Z"/><path class="cls-3" d="M356.73,28.37c13.07,0,22.46,9.74,22.46,23.42,0,13.86-9.39,23.51-22.46,23.51s-22.45-9.65-22.45-23.51C334.28,38.11,343.66,28.37,356.73,28.37Zm0,37.54c6.67,0,11.23-5.79,11.23-14.12s-4.56-14-11.23-14-11.22,5.79-11.22,14S350.07,65.91,356.73,65.91Z"/><path class="cls-3" d="M401.75,75.3c-11.4,0-15.7-7.19-15.7-16.23V38.28h-6.58V29.69h6.58V15.21H397.1V29.69h10.62v8.59H397.1v21c0,4.82,2,6.58,5.88,6.58a24.5,24.5,0,0,0,3.86-.36l.79,9.3A35.83,35.83,0,0,1,401.75,75.3Z"/><path class="cls-3" d="M430.7,11.7h11.4V36.53h26.84V11.7h11.41V74H468.94V47H442.1V74H430.7Z"/><path class="cls-3" d="M506.78,75.3c-13.07,0-22.28-9.65-22.28-23.51,0-13.68,9.21-23.42,22.1-23.42s20.79,9.74,20.79,23.42v3.6H495.73c1.14,6.31,5.44,10.52,11,10.52,3.86,0,7.46-1.93,10.44-6.31l8.6,5.09C521.52,71.35,515.11,75.3,506.78,75.3ZM495.64,47.84h20.61c-.87-6.66-4.12-10.26-9.82-10.26C500.46,37.58,496.69,41.35,495.64,47.84Z"/><path class="cls-3" d="M557.69,69.25a20.65,20.65,0,0,1-14.38,6c-7.11,0-14.13-4.21-14.13-12.72,0-11.32,12.46-16.58,28-17v-.88c0-4.47-3.51-6.84-8-6.84-3.5,0-7.36,1.41-11,5.53l-7.37-6.14a23.63,23.63,0,0,1,18.86-8.86c11.14,0,18.42,5,18.42,18.33V74H557.69ZM557.17,56V53.72c-14.3.44-16.76,5.26-16.76,8,0,3.34,2.72,4.83,6,4.83C551.11,66.53,557.17,62.58,557.17,56Z"/><path class="cls-3" d="M575.47,11.7h11V74h-11Z"/><path class="cls-3" d="M612.47,75.3c-11.41,0-15.71-7.19-15.71-16.23V38.28h-6.57V29.69h6.57V15.21h11.06V29.69h10.61v8.59H607.82v21c0,4.82,2,6.58,5.87,6.58a24.5,24.5,0,0,0,3.86-.36l.79,9.3A35.62,35.62,0,0,1,612.47,75.3Z"/><path class="cls-3" d="M633.41,74H622.35V11.7h11.06v23c2.45-3.86,6.66-6.32,12.28-6.32,8.15,0,16,5.35,16,17.28V74h-11V48.28c0-6.4-2.64-9.73-8.16-9.73s-9.12,4-9.12,10.52Z"/><path class="cls-3" d="M666.36,13.31v8.24h-1.74V13.31h-2.81V11.7h7.34v1.61Zm6.13,2.28v6h-1.75V11.7h1.63l3,6.29,2.87-6.29h1.61v9.85h-1.72v-6l-2.39,5.2h-.83Z"/></svg>