<svg version="1.1" id="Layer_1" xmlns:x="ns_extend;" xmlns:i="ns_ai;" xmlns:graph="ns_graphs;" xmlns="http://www.w3.org/2000/svg" xmlns:xlink="http://www.w3.org/1999/xlink" x="0px" y="0px" viewBox="0 0 286.9 45" style="enable-background:new 0 0 286.9 45;" xml:space="preserve">
 <style type="text/css">
  .st0{fill:#01382E;}
 </style>
 <metadata>
  <sfw xmlns="ns_sfw;">
   <slices>
   </slices>
   <sliceSourceBounds bottomLeftOrigin="true" height="45" width="286.9" x="-31.9" y="0">
   </sliceSourceBounds>
  </sfw>
 </metadata>
 <g>
  <path class="st0" d="M11.4,35.3c-3.9,0-6.7-0.9-8.6-2.7C0.9,30.7,0,28.2,0,24.9h4.8c0,2.5,0.5,4.3,1.6,5.6c1.1,1.3,2.7,2,4.9,2
		c1.8,0,3.3-0.4,4.4-1.3c1.1-0.9,1.7-2.1,1.7-3.7c0-1.2-0.3-2.3-1-3.2c-0.7-0.9-1.8-1.7-3.4-2.3l-4-1.6c-2.8-1.1-4.8-2.4-6-3.8
		c-1.2-1.4-1.8-3-1.8-4.8c0-1.2,0.2-2.3,0.7-3.2c0.5-1,1.1-1.8,2-2.5s1.9-1.2,3.1-1.6c1.2-0.4,2.6-0.6,4-0.6c1.5,0,2.9,0.2,4.1,0.6
		c1.2,0.4,2.3,0.9,3.1,1.6c0.9,0.7,1.5,1.5,2,2.5c0.5,1,0.7,2.1,0.7,3.2c0,0.6-0.1,1.2-0.2,1.9l-4.8-0.5c0-0.2,0-0.4,0.1-0.6
		c0-0.2,0-0.4,0-0.6c0-1.7-0.4-3-1.3-4c-0.9-0.9-2.1-1.4-3.7-1.4c-1.5,0-2.7,0.4-3.6,1.2s-1.4,1.8-1.4,3.1c0,1,0.3,1.9,1,2.8
		c0.7,0.8,1.9,1.6,3.6,2.3l4,1.6c2.7,1.1,4.7,2.3,5.8,3.8c1.2,1.5,1.8,3.2,1.8,5.2c0,2.7-1,4.7-2.9,6.3
		C17.5,34.5,14.9,35.3,11.4,35.3L11.4,35.3z">
  </path>
  <path class="st0" d="M25.3,44.6V15.4H30v3.8c0.7-1.3,1.6-2.3,2.9-3.1c1.3-0.8,2.7-1.2,4.2-1.2c1.3,0,2.4,0.3,3.5,0.8
		c1.1,0.5,2,1.2,2.8,2.2c0.8,0.9,1.4,2,1.8,3.2c0.4,1.2,0.7,2.6,0.7,4c0,1.4-0.2,2.8-0.7,4c-0.4,1.3-1.1,2.3-1.8,3.3
		c-0.8,0.9-1.7,1.6-2.8,2.2c-1.1,0.5-2.2,0.8-3.5,0.8c-1.6,0-3-0.4-4.2-1.2c-1.3-0.8-2.2-1.8-2.9-3.1v13.6L25.3,44.6L25.3,44.6z
		 M35.5,31.8c0.8,0,1.6-0.2,2.2-0.5c0.7-0.3,1.3-0.8,1.8-1.4c0.5-0.6,0.9-1.3,1.1-2.1c0.3-0.8,0.4-1.7,0.4-2.7c0-1-0.1-1.8-0.4-2.6
		c-0.3-0.8-0.7-1.5-1.1-2.1c-0.5-0.6-1.1-1.1-1.8-1.4c-0.7-0.3-1.4-0.5-2.2-0.5s-1.6,0.2-2.3,0.5c-0.7,0.3-1.3,0.8-1.8,1.4
		c-0.5,0.6-0.9,1.3-1.2,2.1c-0.3,0.8-0.4,1.7-0.4,2.6c0,0.9,0.1,1.8,0.4,2.7c0.3,0.8,0.7,1.5,1.2,2.1c0.5,0.6,1.1,1.1,1.8,1.4
		C33.9,31.6,34.7,31.8,35.5,31.8z">
  </path>
  <path class="st0" d="M59,20.5c0.1-0.6,0-1.1-0.1-1.4c-0.2-0.3-0.5-0.4-0.9-0.4c-0.5,0-0.9,0.2-1.4,0.6c-0.5,0.4-1,1-1.4,1.8
		c-0.4,0.8-0.8,1.8-1,3s-0.4,2.6-0.4,4.2v6.4H49V15.4h4.8V20c0.5-1.5,1.2-2.7,2.2-3.7c0.9-1,2.2-1.5,3.7-1.5c0.9,0,1.6,0.2,2.3,0.5
		c0.6,0.4,1.1,0.8,1.4,1.4c0.3,0.6,0.5,1.3,0.6,2c0.1,0.7,0.1,1.5,0,2.2L59,20.5L59,20.5z">
  </path>
  <path class="st0" d="M68.5,12.8c-0.9,0-1.6-0.3-2.1-0.8c-0.5-0.5-0.8-1.2-0.8-2c0-0.8,0.3-1.5,0.8-2c0.5-0.5,1.2-0.8,2.1-0.8
		s1.6,0.3,2.1,0.8c0.5,0.5,0.8,1.2,0.8,2c0,0.8-0.3,1.5-0.8,2C70.1,12.5,69.4,12.8,68.5,12.8z M66.1,34.7V15.4h4.8v19.4H66.1z">
  </path>
  <path class="st0" d="M79.6,34.7h-4.8V15.4h4.8v5.9c1.4-4.3,3.9-6.5,7.4-6.5c2,0,3.6,0.7,4.7,2.1c1.1,1.4,1.6,3.4,1.6,6.1v11.7h-4.8
		V23c0-1.5-0.2-2.6-0.7-3.3c-0.4-0.7-1.2-1-2.2-1c-2,0-3.5,1.2-4.6,3.5c-1.1,2.3-1.6,5.6-1.6,9.8L79.6,34.7L79.6,34.7z">
  </path>
  <path class="st0" d="M106.1,30.1c-1.1,0-2,0-2.6,0.1c-0.6,0.1-1.1,0.2-1.4,0.3c-0.3,0.1-0.5,0.3-0.6,0.4c-0.1,0.2-0.1,0.3-0.1,0.5
		c0,0.4,0.3,0.7,0.8,0.8c0.6,0.2,1.6,0.3,3.1,0.3h1.7c3.3,0,5.7,0.5,7.5,1.4c1.7,1,2.6,2.3,2.6,4c0,2.1-1,3.8-3.1,5.1
		c-2.1,1.3-5,1.9-8.8,1.9c-3,0-5.4-0.4-7.2-1.3c-1.8-0.9-2.7-2-2.7-3.5c0-1.2,0.5-2.2,1.4-3c1-0.9,2.3-1.5,4-1.9
		c-1.3-0.2-2.3-0.5-2.9-1c-0.6-0.5-1-1-1-1.6c0-0.8,0.4-1.5,1.1-2.1c0.7-0.6,1.8-1.1,3.3-1.5c-1.4-0.7-2.5-1.6-3.3-2.7
		c-0.8-1.1-1.2-2.4-1.2-3.9c0-1.1,0.2-2.1,0.7-3.1c0.5-0.9,1.1-1.7,1.9-2.4c0.8-0.7,1.8-1.2,3-1.6c1.2-0.4,2.4-0.6,3.8-0.6
		c1.6,0,2.8,0.4,3.6,0.4c1.6,0,2.5-1,2.5-3l4.8,0.6c0,0.5-0.1,0.9-0.4,1.3c-0.3,0.4-0.6,0.8-1.1,1.1c-0.5,0.3-1,0.6-1.6,0.8
		c-0.6,0.2-1.3,0.4-1.9,0.4c1.2,0.7,2,1.6,2.6,2.6c0.6,1,0.9,2.1,0.9,3.4c0,1.1-0.2,2.1-0.7,3.1c-0.5,0.9-1.1,1.7-1.9,2.4
		c-0.8,0.7-1.8,1.2-3,1.6C108.7,29.9,107.4,30.1,106.1,30.1L106.1,30.1z M105.6,42.4c2.1,0,3.7-0.3,4.8-1c1.2-0.6,1.7-1.5,1.7-2.5
		c0-0.9-0.4-1.5-1.3-1.9c-0.9-0.4-2.1-0.6-3.8-0.6h-1.7c-1.7,0-3,0.3-3.9,0.8c-0.9,0.5-1.4,1.3-1.4,2.2c0,0.9,0.5,1.6,1.4,2.1
		C102.4,42.1,103.8,42.4,105.6,42.4L105.6,42.4z M106.1,27.6c1.6,0,2.7-0.5,3.5-1.5c0.8-1,1.2-2.2,1.2-3.6c0-1.4-0.4-2.6-1.2-3.6
		c-0.8-1-2-1.4-3.5-1.4c-1.6,0-2.7,0.5-3.6,1.4c-0.8,1-1.2,2.2-1.2,3.6c0,1.4,0.4,2.7,1.2,3.6C103.4,27.1,104.5,27.6,106.1,27.6z">
  </path>
  <path class="st0" d="M132.9,34.7h-4.8V4.9h4.8v13.2h13.6V4.9h4.8v29.9h-4.8V20.9h-13.6V34.7z">
  </path>
  <path class="st0" d="M159.6,25.3c0,1.4,0.2,2.6,0.5,3.6c0.3,1,0.6,1.7,1.1,2.3c0.4,0.6,1,1,1.5,1.2c0.6,0.2,1.1,0.3,1.7,0.3
		c1.2,0,2.2-0.4,2.9-1.1s1.2-2,1.5-3.6l4.5,0.5c-0.5,2.1-1.6,3.8-3.2,5.1c-1.6,1.2-3.5,1.9-5.8,1.9c-1.4,0-2.7-0.2-3.9-0.7
		s-2.2-1.2-3-2.1c-0.8-0.9-1.5-2-1.9-3.2c-0.4-1.3-0.7-2.6-0.7-4.2c0-1.6,0.2-3.1,0.7-4.4c0.5-1.3,1.1-2.4,1.9-3.2
		c0.8-0.9,1.8-1.5,3-2c1.2-0.4,2.5-0.7,3.9-0.7c1.6,0,3.1,0.3,4.2,0.9c1.2,0.6,2.2,1.4,2.9,2.3c0.8,1,1.3,2.1,1.6,3.3
		c0.3,1.2,0.5,2.5,0.4,3.9L159.6,25.3L159.6,25.3z M164.3,17.5c-1.3,0-2.3,0.4-3.1,1.3c-0.8,0.8-1.3,2.2-1.5,4.1h9
		c-0.1-1.8-0.5-3.1-1.2-4C166.7,17.9,165.7,17.5,164.3,17.5L164.3,17.5z">
  </path>
  <path class="st0" d="M193.5,34.7h-4.7v-4.1c-0.7,1.5-1.7,2.7-2.9,3.5c-1.2,0.8-2.6,1.2-4.3,1.2c-1.8,0-3.2-0.4-4.3-1.3
		c-1.1-0.9-1.6-2.1-1.6-3.8c0-2.3,1.1-4.1,3.4-5.4c2.3-1.3,5.5-2.1,9.7-2.5c-0.1-1.6-0.4-2.8-1-3.6c-0.6-0.8-1.5-1.2-2.7-1.2
		c-1.2,0-2.2,0.4-2.7,1.1c-0.6,0.8-0.9,1.8-1,3.1l-4.6-0.5c0.2-1.9,1-3.4,2.5-4.6c1.5-1.2,3.4-1.8,5.9-1.8c1.2,0,2.3,0.2,3.4,0.5
		c1,0.3,1.9,0.8,2.6,1.5c0.7,0.7,1.3,1.5,1.7,2.5c0.4,1,0.6,2.2,0.6,3.5L193.5,34.7L193.5,34.7z M188.8,24.6
		c-2.7,0.1-4.8,0.6-6.1,1.5c-1.4,0.9-2.1,2-2.1,3.5c0,0.9,0.2,1.6,0.7,2.1c0.5,0.5,1.1,0.8,1.9,0.8c0.8,0,1.5-0.2,2.1-0.6
		s1.2-1,1.7-1.7c0.5-0.7,0.9-1.6,1.2-2.5C188.6,26.7,188.7,25.7,188.8,24.6L188.8,24.6z">
  </path>
  <path class="st0" d="M202,34.7h-4.8V4.9h4.8V34.7z">
  </path>
  <path class="st0" d="M213.6,35.3c-3.9,0-5.8-2.1-5.8-6.4v-11h-3.2v-2.5h3.2V8.9h4.8v6.5h6.1v2.5h-6.1v11.9c0,1,0.1,1.7,0.3,2.2
		c0.2,0.4,0.5,0.7,1,0.7s0.8-0.2,1-0.7c0.2-0.4,0.3-1.2,0.4-2.2l4.3,0.5c-0.2,1.6-0.8,2.9-1.9,3.7S215.3,35.3,213.6,35.3L213.6,35.3
		z">
  </path>
  <path class="st0" d="M226.5,34.7h-4.8V4.9h4.8v16.4c1.4-4.3,3.9-6.5,7.4-6.5c2,0,3.6,0.7,4.7,2.1c1.1,1.4,1.6,3.4,1.6,6.1v11.7
		h-4.8V23c0-1.5-0.2-2.6-0.7-3.3c-0.4-0.7-1.2-1-2.2-1c-2,0-3.5,1.2-4.6,3.5c-1.1,2.3-1.6,5.6-1.6,9.8L226.5,34.7L226.5,34.7z">
  </path>
  <path class="st0" d="M267.5,10.2c-2.9,2.5-5.3,5.1-7.4,7.8c4.6-3.2,10.1-4.9,15.5-4.5c4.1,0.3,7.9,1.8,10.6,3.4c0,0,1-1.8,0.4-9.8
		c-0.3-4.3,0-7.1,0-7.1C282.7,0.2,272.8,5.8,267.5,10.2L267.5,10.2z">
  </path>
  <path class="st0" d="M275.5,16.3c-6.2-0.4-12.5,2.2-17.2,6.9c2.9-1.6,6.7-2.9,11.4-2.5c6.3,0.5,10.7,3.8,13.2,6.5
		c1.4-2.1,2.4-4.6,2.8-7.2C283.2,18.2,279.7,16.6,275.5,16.3L275.5,16.3z">
  </path>
  <path class="st0" d="M269.5,23.4c-8.4-0.7-13.7,4.8-15.1,6.5c-1,1.2-1.9,2.6-2.6,4.2c-0.1,0.2-0.2,0.5-0.2,0.7
		c0,0,6.7,1.5,17.1,0.3c10.4-1.1,12.5-5.8,12.5-5.8C279,26.9,275.1,23.8,269.5,23.4L269.5,23.4z">
  </path>
  <path class="st0" d="M265.8,8.1c3.9-3.3,8.3-6.1,13-8.1l-10.3,0.1c-9.6,0.1-17.2,7.9-17.2,17.4l0.1,9.9
		C254,21.5,258.5,14.3,265.8,8.1L265.8,8.1z">
  </path>
 </g>
</svg>