<?xml version="1.0" encoding="UTF-8"?><svg id="Layer_1" xmlns="http://www.w3.org/2000/svg" viewBox="0 0 666.49 96.16"><defs><style>.cls-1{fill-rule:evenodd;}.cls-1,.cls-2{fill:#397a4a;stroke-width:0px;}</style></defs><path class="cls-2" d="m216.7,23.6l-5.29,6.09c1.18-.41,2.25-1,3.22-1.76.97-.76,1.73-1.4,2.29-1.9.56-.5,1.63-.96,3.22-1.37,1.59-.41,3.68-.62,6.26-.62,2.35,0,4.62.24,6.79.71,2.18.47,4.32,1.29,6.44,2.47,2.12,1.18,3.96,2.65,5.51,4.41,1.56,1.76,2.81,4.04,3.75,6.84.94,2.79,1.41,5.96,1.41,9.48,0,9.12-1.97,15.63-5.91,19.54-3.94,3.91-10.44,5.87-19.5,5.87-2.88,0-5.47-.15-7.76-.44-2.29-.29-4.12-.62-5.47-.97-1.35-.35-2.59-.84-3.71-1.46-1.12-.62-1.88-1.12-2.29-1.5-.41-.38-.87-.88-1.37-1.5-.5-.62-.78-.96-.84-1.01V14.42c0-2.35.28-4.15.84-5.38.56-1.24,1.34-2.01,2.34-2.34,1-.32,2.04-.49,3.13-.49s2.29-.09,3.62-.26,2.43-.59,3.31-1.24v18.88Zm0,25.23c-.06,7.76-.06,11.65,0,11.65h.09c.47.12.98.24,1.54.35.56.12,1.54.25,2.96.4,1.41.15,2.72.18,3.93.09,1.2-.09,2.56-.35,4.06-.79,1.5-.44,2.76-1.1,3.79-1.99,1.03-.88,1.9-2.15,2.6-3.79.71-1.65,1.06-3.59,1.06-5.82,0-2.35-.29-4.4-.88-6.13-.59-1.73-1.35-3.09-2.29-4.06-.94-.97-2.06-1.75-3.35-2.34-1.29-.59-2.55-.94-3.75-1.06-1.21-.12-2.49-.13-3.84-.04-1.35.09-2.49.22-3.4.4-.91.18-1.75.38-2.51.62v12.53Z"/><path class="cls-2" d="m272.25,55.8c0,1.82.91,3.19,2.73,4.1,1.82.91,4.13,1.38,6.93,1.41,2.79.03,5.53-.09,8.21-.35,2.68-.26,5.2-.57,7.59-.93,2.38-.35,3.75-.53,4.1-.53.24,5.12-.78,8.73-3.04,10.85-2.26,2.12-6.81,3.18-13.63,3.18-9.41,0-16.32-1.91-20.73-5.73-4.41-3.82-6.62-10.44-6.62-19.85,0-4.71.6-8.69,1.81-11.95,1.2-3.26,2.97-5.75,5.29-7.46,2.32-1.71,4.91-2.91,7.76-3.62,2.85-.71,6.19-1.06,10.01-1.06,7.29,0,12.66,1.54,16.1,4.63,3.44,3.09,5.16,8.01,5.16,14.78,0,2.59-.5,4.66-1.5,6.22-1,1.56-2.31,2.6-3.93,3.13-1.62.53-3.56.91-5.82,1.15-2.26.24-4.5.31-6.71.22-2.21-.09-4.59.02-7.15.31-2.56.29-4.75.79-6.57,1.5Zm-.44-9.26c1-.71,2.63-1.18,4.9-1.41,2.26-.23,4.38-.37,6.35-.4,1.97-.03,3.72-.44,5.25-1.24,1.53-.79,2.26-2.04,2.21-3.75,0-1.53-1.21-2.79-3.62-3.79-3.35-1.41-6.62-1.53-9.79-.35-4.41,1.59-6.18,5.24-5.29,10.94Z"/><path class="cls-2" d="m339.45,61.27c.82,2.59.94,4.97.35,7.15-.59,2.18-1.59,3.62-3,4.32-3.06.94-6.04,1.22-8.95.84-2.91-.38-5.5-1.19-7.76-2.43-2.26-1.24-4.1-3.03-5.51-5.38-1.41-2.35-2.12-5.03-2.12-8.03V19.8c-.06-1.82.23-3.34.88-4.54.65-1.2,1.62-2.07,2.91-2.6,1.29-.53,2.68-.87,4.15-1.01,1.47-.15,3.23-.16,5.29-.04v12.79h15.17v.66c0,.26-.06.81-.18,1.63-.12.82-.29,1.62-.53,2.38-.24.77-.63,1.6-1.19,2.51-.56.91-1.22,1.69-1.99,2.34-.77.65-1.79,1.19-3.09,1.63-1.29.44-2.73.66-4.32.66-1.41,0-2.71.03-3.88.09l.09,20.38c-.06,1.59.26,2.81.97,3.66.71.85,1.66,1.35,2.87,1.5,1.21.15,2.41.18,3.62.09,1.2-.09,2.44-.22,3.71-.4,1.26-.18,2.1-.26,2.51-.26Z"/><path class="cls-2" d="m375.51,61.27c.82,2.59.94,4.97.35,7.15-.59,2.18-1.59,3.62-3,4.32-3.06.94-6.04,1.22-8.95.84-2.91-.38-5.5-1.19-7.76-2.43-2.26-1.24-4.1-3.03-5.51-5.38-1.41-2.35-2.12-5.03-2.12-8.03V19.8c-.06-1.82.23-3.34.88-4.54.65-1.2,1.62-2.07,2.91-2.6,1.29-.53,2.68-.87,4.15-1.01,1.47-.15,3.23-.16,5.29-.04v12.79h15.17v.66c0,.26-.06.81-.18,1.63-.12.82-.29,1.62-.53,2.38-.24.77-.63,1.6-1.19,2.51-.56.91-1.22,1.69-1.99,2.34-.77.65-1.79,1.19-3.09,1.63-1.29.44-2.73.66-4.32.66-1.41,0-2.71.03-3.88.09l.09,20.38c-.06,1.59.26,2.81.97,3.66.71.85,1.66,1.35,2.87,1.5,1.21.15,2.41.18,3.62.09,1.2-.09,2.44-.22,3.71-.4,1.26-.18,2.1-.26,2.52-.26Z"/><path class="cls-2" d="m396.95,55.8c0,1.82.91,3.19,2.73,4.1,1.82.91,4.13,1.38,6.93,1.41,2.79.03,5.53-.09,8.21-.35,2.68-.26,5.2-.57,7.59-.93,2.38-.35,3.75-.53,4.1-.53.23,5.12-.78,8.73-3.04,10.85-2.26,2.12-6.81,3.18-13.63,3.18-9.41,0-16.32-1.91-20.73-5.73-4.41-3.82-6.62-10.44-6.62-19.85,0-4.71.6-8.69,1.81-11.95,1.2-3.26,2.97-5.75,5.29-7.46,2.32-1.71,4.91-2.91,7.76-3.62,2.85-.71,6.19-1.06,10.01-1.06,7.29,0,12.66,1.54,16.1,4.63,3.44,3.09,5.16,8.01,5.16,14.78,0,2.59-.5,4.66-1.5,6.22-1,1.56-2.31,2.6-3.93,3.13-1.62.53-3.56.91-5.82,1.15-2.26.24-4.5.31-6.71.22-2.21-.09-4.59.02-7.15.31-2.56.29-4.75.79-6.57,1.5Zm-.44-9.26c1-.71,2.63-1.18,4.9-1.41,2.26-.23,4.38-.37,6.35-.4,1.97-.03,3.72-.44,5.25-1.24,1.53-.79,2.26-2.04,2.21-3.75,0-1.53-1.21-2.79-3.62-3.79-3.35-1.41-6.62-1.53-9.79-.35-4.41,1.59-6.18,5.24-5.29,10.94Z"/><path class="cls-2" d="m470.52,23.77c-.06.12-.04.74.04,1.85.09,1.12.07,2.19-.04,3.22-.12,1.03-.35,2.13-.71,3.31-.35,1.18-1.07,2.12-2.16,2.82-1.09.71-2.49,1.06-4.19,1.06-2.47,0-4.38.09-5.73.26-1.35.18-2.56.62-3.62,1.32-1.06.71-1.77,1.71-2.12,3-.35,1.29-.53,3.06-.53,5.29v28.23c-1.06-.77-2.46-1.37-4.19-1.81-1.74-.44-3.21-.78-4.41-1.01-1.21-.23-2.28-.93-3.22-2.07-.94-1.15-1.41-2.81-1.41-4.98v-23.65c0-.35.01-.84.04-1.46.03-.62.13-1.47.31-2.56.18-1.09.47-2.18.88-3.26.41-1.09,1.03-2.22,1.85-3.4.82-1.18,1.82-2.21,3-3.09,1.18-.88,2.69-1.62,4.54-2.21,1.85-.59,3.92-.88,6.22-.88h15.44Z"/><path class="cls-2" d="m493.45,25.45c2.88-1.18,7.71-1.77,14.47-1.77,3.29,0,6.12.56,8.47,1.68,2.35,1.12,4.06,2.4,5.12,3.84,1.06,1.44,1.87,3.09,2.43,4.94.56,1.85.87,3.24.93,4.15.06.91.06,1.69,0,2.34v32.11c-8.82,1.18-13.23-1.56-13.23-8.2v-9.71c.06-8.76-.35-14.1-1.24-16.01-.88-1.91-3.65-2.93-8.29-3.04-2.88,0-5.76.53-8.65,1.59v27.17c.12,3.53-.98,5.84-3.31,6.93-2.33,1.09-5.63,1.51-9.93,1.28V3.92c1.06.77,2.46,1.22,4.19,1.37,1.73.15,3.2.22,4.41.22s2.28.63,3.22,1.9c.94,1.27,1.41,3.34,1.41,6.22v11.82Z"/><path class="cls-2" d="m549.19,55.8c0,1.82.91,3.19,2.74,4.1,1.82.91,4.13,1.38,6.93,1.41,2.79.03,5.53-.09,8.2-.35,2.68-.26,5.21-.57,7.59-.93,2.38-.35,3.75-.53,4.1-.53.23,5.12-.78,8.73-3.04,10.85-2.26,2.12-6.81,3.18-13.63,3.18-9.41,0-16.32-1.91-20.73-5.73-4.41-3.82-6.62-10.44-6.62-19.85,0-4.71.6-8.69,1.81-11.95,1.2-3.26,2.97-5.75,5.29-7.46,2.32-1.71,4.91-2.91,7.76-3.62,2.85-.71,6.19-1.06,10.01-1.06,7.29,0,12.66,1.54,16.1,4.63,3.44,3.09,5.16,8.01,5.16,14.78,0,2.59-.5,4.66-1.5,6.22-1,1.56-2.31,2.6-3.93,3.13-1.62.53-3.56.91-5.82,1.15-2.27.24-4.5.31-6.71.22-2.21-.09-4.59.02-7.15.31-2.56.29-4.75.79-6.57,1.5Zm-.44-9.26c1-.71,2.63-1.18,4.9-1.41,2.26-.23,4.38-.37,6.35-.4,1.97-.03,3.72-.44,5.25-1.24,1.53-.79,2.26-2.04,2.21-3.75,0-1.53-1.21-2.79-3.62-3.79-3.35-1.41-6.62-1.53-9.79-.35-4.41,1.59-6.18,5.24-5.29,10.94Z"/><path class="cls-2" d="m604.14,64.54c.12,3.53-.98,5.84-3.31,6.93-2.33,1.09-5.63,1.51-9.93,1.28V3.92c1.06.77,2.46,1.22,4.19,1.37,1.73.15,3.2.22,4.41.22s2.28.63,3.22,1.9c.94,1.27,1.41,3.34,1.41,6.22v50.91Z"/><path class="cls-2" d="m627.85,92.24c-1.06-.77-2.46-1.22-4.19-1.37-1.74-.15-3.21-.22-4.41-.22s-2.28-.63-3.22-1.9c-.94-1.27-1.41-3.34-1.41-6.22V30.48c.06-.06.34-.4.84-1.01.5-.62.95-1.1,1.37-1.46.41-.35,1.18-.85,2.29-1.5,1.12-.65,2.35-1.15,3.71-1.5,1.35-.35,3.18-.68,5.47-.97,2.3-.29,4.88-.44,7.76-.44,9.06,0,15.56,1.96,19.5,5.87,3.94,3.91,5.91,10.43,5.91,19.54,0,4.41-.71,8.24-2.12,11.47-1.41,3.24-3.31,5.72-5.69,7.46-2.38,1.74-4.91,3-7.59,3.79-2.68.79-5.51,1.19-8.51,1.19-4.06,0-7.29-.41-9.71-1.24v20.56Zm0-44.11v12.53c.94.29,1.96.53,3.04.71,1.09.18,2.46.32,4.1.44,1.65.12,3.18-.06,4.59-.53,1.41-.47,2.76-1.15,4.06-2.03,1.29-.88,2.32-2.29,3.09-4.24.76-1.94,1.15-4.26,1.15-6.97,0-2.23-.37-4.18-1.1-5.82-.74-1.65-1.59-2.91-2.56-3.79-.97-.88-2.25-1.54-3.84-1.99-1.59-.44-2.91-.71-3.97-.79-1.06-.09-2.38-.04-3.97.13-1.59.18-2.56.29-2.91.35-.35.06-.88.18-1.59.35h-.09c-.06,0-.06,3.88,0,11.65Z"/><path class="cls-1" d="m179.81,26.37s-31.08-20.11-58.36-11.18c-9.15,2.99-16.7,8.87-22.7,15.36-3.37,3.65-7.26,11.98-18.94,16.51-2.57.99-5.45,2.04-9.08,2.48-5.28.65-8.74,1.92-13.16,3.05-1.85.47-5.47,1.53-5.73-.78-.17-1.54,1.46-1.96,2.87-2.37,3-.87,5.13-1.62,8.06-2.63,1.02-.36,3.69-.79,3.37-1.86-.22-.73-1.97-.29-2.8-.12-5.18,1.01-9.89,1.9-15.13,2.71-2.12.33-4.69.72-5.05-1.14-.54-2.75,2.92-2.81,5.31-3.23,4.4-.76,7.89-1.53,12.12-2.36.67-.13,1.6-.15,1.88-.9-.76-.52-1.87-.19-2.8-.05-5.7.83-11.69,1.71-17.22,2.86-1.84.38-3.72.54-4.12-1.12-.67-2.83,2.99-3.28,5.34-3.85,5.01-1.21,9.22-1.61,14.83-2.54.77-.13,2.5-.31,2.5-.95,0-.89-2.7-.61-3.61-.61-4.09,0-7.09.32-11.61.77-2.47.25-5.61,1.04-5.9-1.16-.46-3.42,6.32-3.08,9.25-3.41,5.59-.65,10.91-.85,16.02-2.16,2.35-.6,5.49-1.38,5.7-3.02.22-1.69-2.13-3.58-2.91-4.08-1.26-.81-2.84-1.38-4.12-2.36-1.26-.97-2.59-2.1-3.25-3.36-.73-1.37-.98-4.55,1.08-4.66.82-.04,2.69,1.55,3.32,1.96,1.19.77,2.27,1.34,3.24,2.03,1.82,1.3,3.02,2.76,4.83,3.64,1.36.66,2.7,1.15,4.01,1.83,1.27.67,2.55,1.32,3.79,2.08,1.3.79,2.5,2.6,4.22,3.5,9.53,5.01,14.56-4.37,12.25-5.57-11.92-6.19-31.51-14.31-43.1-13.13C25.64,9.45,5.39,40.43,5.39,40.43c0,0,26.06,26.29,54.62,23.4,14.71-1.49,27.2-10.43,35.87-18.75-.22-.27,8.09-10.1,18.16-13.65,5.02-1.77,8.12-3.75,12.2-5.8,1.7-.85,5.01-2.67,5.76-.46.5,1.47-1.02,2.23-2.3,2.93-2.74,1.49-4.67,2.68-7.32,4.3-.92.56-3.44,1.56-2.9,2.53.37.67,1.98-.14,2.77-.48,4.84-2.09,9.25-3.97,14.2-5.88,1.99-.78,4.42-1.7,5.18.03,1.12,2.58-2.24,3.38-4.49,4.29-4.14,1.69-7.38,3.18-11.33,4.9-.63.27-1.53.49-1.65,1.28.85.34,1.87-.22,2.75-.55,5.39-2.03,11.05-4.17,16.2-6.47,1.71-.76,3.52-1.32,4.26.22,1.26,2.61-2.22,3.85-4.39,4.9-4.63,2.26-8.66,3.54-13.95,5.65-.73.29-2.38.83-2.24,1.46.18.87,2.77.02,3.66-.17,4-.87,6.86-1.83,11.17-3.23,2.36-.77,5.26-2.22,6.02-.13,1.19,3.25-5.51,4.36-8.31,5.31-5.32,1.83-10.47,3.16-15.19,5.53-2.17,1.09-5.07,2.52-4.92,4.17.15,1.7,2.84,3.04,3.72,3.37,1.41.52,3.07.74,4.53,1.43,1.44.67,2.98,1.5,3.89,2.58,1.01,1.18,1.93,4.24-.06,4.78-.79.22-2.96-.94-3.65-1.2-1.33-.5-2.51-.82-3.61-1.29-2.05-.88-3.53-2.05-5.49-2.53-1.46-.36-2.88-.54-4.31-.93-1.38-.38-2.77-.75-4.15-1.22-1.44-.5-3.32-1.35-4.87-2.52-.54-.4-1.57-1.16-2.73-.83-7.68.18-15.24,4.38-19.53,11.77-4.18,7.21-4.2,15.63-.8,22.31-.72-5.04.22-10.43,3.03-15.28,2.67-4.61,6.62-7.99,11.07-9.93,11.52,4.55,27.88,8.6,43.09,3.62,27.28-8.93,40.44-43.53,40.44-43.53Z"/></svg>