<svg xmlns="http://www.w3.org/2000/svg" width="209.858" height="33.164" viewBox="0 0 209.858 33.164"><g transform="translate(0 -6)"><g transform="translate(0 6)"><path d="M169.923,111.147" transform="translate(-154.714 -105.204)" fill="#1e8cd6"/><path d="M100.551,106a7.7,7.7,0,0,0,10.236.753l-5.486-5.625L85.742,81.067a10.062,10.062,0,0,0-2.783,2.018,10.317,10.317,0,0,0-1.968,2.853Z" transform="translate(-80.009 -80.058)" fill="#f434a6"/><path d="M75.834,110.765A10.534,10.534,0,0,0,77.8,122.527l12.84,13.168a7.7,7.7,0,0,0,10.236.753l-5.486-5.625Z" transform="translate(-74.852 -104.884)" fill="#c91c98"/><path d="M130.249,95.993a7.7,7.7,0,0,0,10.236.753L122.159,77.953a9.9,9.9,0,0,0-11.47-2.018Z" transform="translate(-104.956 -74.926)" fill="#ff6ebe"/><path d="M172.239,92.56a10.522,10.522,0,0,0,0-14.616h0a9.9,9.9,0,0,0-14.253,0l-8.959,9.187a6.6,6.6,0,0,0,9.5,0l2.4-2.46,9.5,9.744Z" transform="translate(-137.162 -74.918)" fill="#33248e"/><path d="M223.419,134.379l9.5,9.744,1.809-1.855Z" transform="translate(-199.653 -124.625)" fill="#070742"/></g><g transform="translate(49.558 11.267)"><path d="M386.764,107.024a2.118,2.118,0,0,1,2.171,2.118,2.1,2.1,0,0,1-2.171,2.091,2.051,2.051,0,0,1-2.118-2.091A2.073,2.073,0,0,1,386.764,107.024Zm-1.642,19.931v-13.74h3.257v13.74Z" transform="translate(-384.646 -107.024)" fill="#070742"/><path d="M429.893,146.284a3.829,3.829,0,0,1,3.654-3.34,3.673,3.673,0,0,1,1.112.19v3.286a4.7,4.7,0,0,0-1.536-.272c-1.192,0-3.177.679-3.177,4.48v6.354h-3.257v-13.74h3.2Z" transform="translate(-419.963 -137.052)" fill="#070742"/><path d="M484.917,107.024a2.118,2.118,0,0,1,2.171,2.118,2.1,2.1,0,0,1-2.171,2.091,2.051,2.051,0,0,1-2.118-2.091A2.073,2.073,0,0,1,484.917,107.024Zm-1.642,19.931v-13.74h3.257v13.74Z" transform="translate(-467.098 -107.024)" fill="#070742"/><path d="M520.126,152.611a2.8,2.8,0,0,0,2.86,1.982c.953,0,2.012-.353,2.012-1.439,0-.706-.635-1.113-1.456-1.467l-1.959-.76c-2.674-1.032-3.363-2.579-3.363-3.828,0-2.553,2.119-4.155,4.9-4.155a4.6,4.6,0,0,1,4.687,3.068l-2.621.978a2.017,2.017,0,0,0-2.039-1.412,1.581,1.581,0,0,0-1.748,1.439c0,.76.662,1.141,1.4,1.412l1.986.733c2.86.978,3.416,2.742,3.416,3.937,0,2.715-2.463,4.182-5.243,4.182-2.171,0-4.634-.923-5.4-3.557Z" transform="translate(-496.296 -137.052)" fill="#070742"/><path d="M629.523,134.645c0,1.955.98,2.553,1.959,2.553a1.738,1.738,0,0,0,1.906-1.765,2.779,2.779,0,0,0-.185-.978h1.827a3.722,3.722,0,0,1,.212,1.222c0,1.874-1.377,3.34-3.786,3.34-1.96,0-3.919-.95-3.919-4.508v-7.684h-2.224V125.2h2.224l.476-4.1h1.509v4.1h4.29v1.629h-4.29Z" transform="translate(-586.814 -118.787)" fill="#070742"/><path d="M707.555,156.026a7.387,7.387,0,0,1-5.64,2.363c-4.555,0-7.414-3.15-7.414-7.006a6.985,6.985,0,0,1,7.1-7.114c3.389,0,6.567,2.172,6.62,7.033h-11.73v.217c0,2.905,2.118,5.078,5.428,5.078a6.372,6.372,0,0,0,4.5-1.792Zm-10.857-6.3h9.453a4.318,4.318,0,0,0-4.5-3.666A4.988,4.988,0,0,0,696.7,149.727Z" transform="translate(-644.934 -138.159)" fill="#070742"/><path d="M797.289,128.477H795.3V108.845h1.986Z" transform="translate(-729.61 -108.546)" fill="#070742"/><path d="M836.991,156.026a7.387,7.387,0,0,1-5.64,2.363c-4.554,0-7.414-3.15-7.414-7.006a6.985,6.985,0,0,1,7.1-7.114c3.389,0,6.567,2.172,6.62,7.033h-11.73v.217c0,2.905,2.118,5.078,5.428,5.078a6.373,6.373,0,0,0,4.5-1.792Zm-10.856-6.3h9.453a4.319,4.319,0,0,0-4.5-3.666A4.988,4.988,0,0,0,826.135,149.727Z" transform="translate(-753.664 -138.159)" fill="#070742"/><path d="M933.953,120.793c0-3.286-1.695-4.317-3.389-4.317-1.456,0-4.449,1.059-4.5,5.431v6.571h-1.986V108.845h1.986v8.988a4.716,4.716,0,0,1,4.634-3.177c2.86,0,5.243,1.71,5.243,6.137v7.685h-1.986Z" transform="translate(-837.784 -108.546)" fill="#070742"/><path d="M1025.518,156.026a7.386,7.386,0,0,1-5.64,2.363c-4.555,0-7.414-3.15-7.414-7.006a6.985,6.985,0,0,1,7.1-7.114c3.389,0,6.567,2.172,6.62,7.033h-11.73v.217c0,2.905,2.118,5.078,5.428,5.078a6.373,6.373,0,0,0,4.5-1.792Zm-10.856-6.3h9.453a4.319,4.319,0,0,0-4.5-3.666A4.988,4.988,0,0,0,1014.662,149.727Z" transform="translate(-912.032 -138.159)" fill="#070742"/><path d="M1120.109,158.09h-1.986V155.4a5.748,5.748,0,0,1-5.243,2.987c-4,0-6.567-3.177-6.567-7.06s2.568-7.06,6.567-7.06a5.748,5.748,0,0,1,5.243,2.987v-2.688h1.986Zm-7.043-1.521a5.243,5.243,0,0,0,0-10.481c-2.992,0-4.766,2.335-4.766,5.241C1108.3,154.18,1110.073,156.57,1113.065,156.57Z" transform="translate(-990.868 -138.159)" fill="#070742"/><path d="M1217.213,128.477h-1.986V108.845h1.986Z" transform="translate(-1082.359 -108.546)" fill="#070742"/><path d="M1244.263,134.645c0,1.955.98,2.553,1.959,2.553a1.737,1.737,0,0,0,1.906-1.765,2.779,2.779,0,0,0-.185-.978h1.827a3.719,3.719,0,0,1,.212,1.222c0,1.874-1.377,3.34-3.787,3.34-1.959,0-3.919-.95-3.919-4.508v-7.684h-2.224V125.2h2.224l.477-4.1h1.509v4.1h4.29v1.629h-4.29Z" transform="translate(-1103.214 -118.787)" fill="#070742"/><path d="M1322.43,120.793c0-3.286-1.695-4.317-3.389-4.317-1.456,0-4.448,1.059-4.5,5.431v6.571h-1.986V108.845h1.986v8.988a4.716,4.716,0,0,1,4.634-3.177c2.86,0,5.243,1.71,5.243,6.137v7.685h-1.986Z" transform="translate(-1164.116 -108.546)" fill="#070742"/></g></g></svg>